<?xml version="1.0" encoding="UTF-8"?>
<svg id="_레이어_1" data-name="레이어 1" xmlns="http://www.w3.org/2000/svg" viewBox="0 0 100 100">
  <defs>
    <style>
      .cls-1 {
        fill: #ba2228;
        stroke-width: 0px;
      }
    </style>
  </defs>
  <path class="cls-1" d="m93.3,32.51c-.05-.18-.09-.32-.12-.27.03.19.08.27.12.27Z"/>
  <path class="cls-1" d="m90.61,57.14l.27-.62c-.12-.07-.17.31-.27.62Z"/>
  <path class="cls-1" d="m88.18,67.89l-.05.2c.03.07.07.14.11.21l-.06-.4Z"/>
  <path class="cls-1" d="m90.23,20.07v.04c.15.17.09.07,0-.04Z"/>
  <path class="cls-1" d="m19.87,9.62c.87-.27-.88,1.19.35.66-.21-.05.69-1.1-.35-.66Z"/>
  <path class="cls-1" d="m66.06,11.56l.07.05c.09-.03.21-.04.41.04-.17-.05-.23-.11-.47-.09Z"/>
  <polygon class="cls-1" points="59.44 10.52 59.56 10.61 59.79 10.64 59.44 10.52"/>
  <path class="cls-1" d="m70.12,25.64c-.24-.49-.54-.93-.88-1.37-.29-.29-.54-.68-.68-1.12l-.78.44c-.44.24-.93.54-1.42.83-.49.34-.93.63-1.32.98-.44.34-.73.68-1.03,1.02s-.44.68-.49,1.03c-.05.34.05.63.24.98.15.34.39.68.73.98.29.29.63.54,1.03.73.39.2.73.29,1.07.34.39,0,.83-.1,1.22-.29.44-.24.78-.49,1.17-.83.34-.34.68-.73.93-1.17.24-.39.39-.78.44-1.12.05-.49,0-.98-.24-1.42Zm0,0c-.24-.49-.54-.93-.88-1.37-.29-.29-.54-.68-.68-1.12l-.78.44c-.44.24-.93.54-1.42.83-.49.34-.93.63-1.32.98-.44.34-.73.68-1.03,1.02s-.44.68-.49,1.03c-.05.34.05.63.24.98.15.34.39.68.73.98.29.29.63.54,1.03.73.39.2.73.29,1.07.34.39,0,.83-.1,1.22-.29.44-.24.78-.49,1.17-.83.34-.34.68-.73.93-1.17.24-.39.39-.78.44-1.12.05-.49,0-.98-.24-1.42Zm0,0c-.24-.49-.54-.93-.88-1.37-.29-.29-.54-.68-.68-1.12l-.78.44c-.44.24-.93.54-1.42.83-.49.34-.93.63-1.32.98-.44.34-.73.68-1.03,1.02s-.44.68-.49,1.03c-.05.34.05.63.24.98.15.34.39.68.73.98.29.29.63.54,1.03.73.39.2.73.29,1.07.34.39,0,.83-.1,1.22-.29.44-.24.78-.49,1.17-.83.34-.34.68-.73.93-1.17.24-.39.39-.78.44-1.12.05-.49,0-.98-.24-1.42Zm0,0c-.24-.49-.54-.93-.88-1.37-.29-.29-.54-.68-.68-1.12l-.78.44c-.44.24-.93.54-1.42.83-.49.34-.93.63-1.32.98-.44.34-.73.68-1.03,1.02s-.44.68-.49,1.03c-.05.34.05.63.24.98.15.34.39.68.73.98.29.29.63.54,1.03.73.39.2.73.29,1.07.34.39,0,.83-.1,1.22-.29.44-.24.78-.49,1.17-.83.34-.34.68-.73.93-1.17.24-.39.39-.78.44-1.12.05-.49,0-.98-.24-1.42Zm0,0c-.24-.49-.54-.93-.88-1.37-.29-.29-.54-.68-.68-1.12l-.78.44c-.44.24-.93.54-1.42.83-.49.34-.93.63-1.32.98-.44.34-.73.68-1.03,1.02s-.44.68-.49,1.03c-.05.34.05.63.24.98.15.34.39.68.73.98.29.29.63.54,1.03.73.39.2.73.29,1.07.34.39,0,.83-.1,1.22-.29.44-.24.78-.49,1.17-.83.34-.34.68-.73.93-1.17.24-.39.39-.78.44-1.12.05-.49,0-.98-.24-1.42Zm0,0c-.24-.49-.54-.93-.88-1.37-.29-.29-.54-.68-.68-1.12l-.78.44c-.44.24-.93.54-1.42.83-.49.34-.93.63-1.32.98-.44.34-.73.68-1.03,1.02s-.44.68-.49,1.03c-.05.34.05.63.24.98.15.34.39.68.73.98.29.29.63.54,1.03.73.39.2.73.29,1.07.34.39,0,.83-.1,1.22-.29.44-.24.78-.49,1.17-.83.34-.34.68-.73.93-1.17.24-.39.39-.78.44-1.12.05-.49,0-.98-.24-1.42Zm0,0c-.24-.49-.54-.93-.88-1.37-.29-.29-.54-.68-.68-1.12l-.78.44c-.44.24-.93.54-1.42.83-.49.34-.93.63-1.32.98-.44.34-.73.68-1.03,1.02s-.44.68-.49,1.03c-.05.34.05.63.24.98.15.34.39.68.73.98.29.29.63.54,1.03.73.39.2.73.29,1.07.34.39,0,.83-.1,1.22-.29.44-.24.78-.49,1.17-.83.34-.34.68-.73.93-1.17.24-.39.39-.78.44-1.12.05-.49,0-.98-.24-1.42Zm0,0c-.24-.49-.54-.93-.88-1.37-.29-.29-.54-.68-.68-1.12l-.78.44c-.44.24-.93.54-1.42.83-.49.34-.93.63-1.32.98-.44.34-.73.68-1.03,1.02s-.44.68-.49,1.03c-.05.34.05.63.24.98.15.34.39.68.73.98.29.29.63.54,1.03.73.39.2.73.29,1.07.34.39,0,.83-.1,1.22-.29.44-.24.78-.49,1.17-.83.34-.34.68-.73.93-1.17.24-.39.39-.78.44-1.12.05-.49,0-.98-.24-1.42Zm-43.54,46.17c-.29-.34-.44-.68-.54-1.03l-.59.39c-.83.54-1.51,1.02-2.1,1.56-.59.49-.93,1.02-.98,1.51,0,.2,0,.39.15.63.1.2.29.39.49.59.2.15.44.29.68.44.29.1.54.2.78.2.24.05.54,0,.83-.2.29-.15.59-.34.83-.59s.44-.54.59-.83c.2-.29.29-.59.34-.88.05-.63-.1-1.22-.49-1.81Zm43.54-46.17c-.24-.49-.54-.93-.88-1.37-.29-.29-.54-.68-.68-1.12l-.78.44c-.44.24-.93.54-1.42.83-.49.34-.93.63-1.32.98-.44.34-.73.68-1.03,1.02s-.44.68-.49,1.03c-.05.34.05.63.24.98.15.34.39.68.73.98.29.29.63.54,1.03.73.39.2.73.29,1.07.34.39,0,.83-.1,1.22-.29.44-.24.78-.49,1.17-.83.34-.34.68-.73.93-1.17.24-.39.39-.78.44-1.12.05-.49,0-.98-.24-1.42Zm-43.54,46.17c-.29-.34-.44-.68-.54-1.03l-.59.39c-.83.54-1.51,1.02-2.1,1.56-.59.49-.93,1.02-.98,1.51,0,.2,0,.39.15.63.1.2.29.39.49.59.2.15.44.29.68.44.29.1.54.2.78.2.24.05.54,0,.83-.2.29-.15.59-.34.83-.59s.44-.54.59-.83c.2-.29.29-.59.34-.88.05-.63-.1-1.22-.49-1.81Zm43.54-46.17c-.24-.49-.54-.93-.88-1.37-.29-.29-.54-.68-.68-1.12l-.78.44c-.44.24-.93.54-1.42.83-.49.34-.93.63-1.32.98-.44.34-.73.68-1.03,1.02s-.44.68-.49,1.03c-.05.34.05.63.24.98.15.34.39.68.73.98.29.29.63.54,1.03.73.39.2.73.29,1.07.34.39,0,.83-.1,1.22-.29.44-.24.78-.49,1.17-.83.34-.34.68-.73.93-1.17.24-.39.39-.78.44-1.12.05-.49,0-.98-.24-1.42Zm-43.54,46.17c-.29-.34-.44-.68-.54-1.03l-.59.39c-.83.54-1.51,1.02-2.1,1.56-.59.49-.93,1.02-.98,1.51,0,.2,0,.39.15.63.1.2.29.39.49.59.2.15.44.29.68.44.29.1.54.2.78.2.24.05.54,0,.83-.2.29-.15.59-.34.83-.59s.44-.54.59-.83c.2-.29.29-.59.34-.88.05-.63-.1-1.22-.49-1.81Zm43.54-46.17c-.24-.49-.54-.93-.88-1.37-.29-.29-.54-.68-.68-1.12l-.78.44c-.44.24-.93.54-1.42.83-.49.34-.93.63-1.32.98-.44.34-.73.68-1.03,1.02s-.44.68-.49,1.03c-.05.34.05.63.24.98.15.34.39.68.73.98.29.29.63.54,1.03.73.39.2.73.29,1.07.34.39,0,.83-.1,1.22-.29.44-.24.78-.49,1.17-.83.34-.34.68-.73.93-1.17.24-.39.39-.78.44-1.12.05-.49,0-.98-.24-1.42Zm-43.54,46.17c-.29-.34-.44-.68-.54-1.03l-.59.39c-.83.54-1.51,1.02-2.1,1.56-.59.49-.93,1.02-.98,1.51,0,.2,0,.39.15.63.1.2.29.39.49.59.2.15.44.29.68.44.29.1.54.2.78.2.24.05.54,0,.83-.2.29-.15.59-.34.83-.59s.44-.54.59-.83c.2-.29.29-.59.34-.88.05-.63-.1-1.22-.49-1.81Zm43.54-46.17c-.24-.49-.54-.93-.88-1.37-.29-.29-.54-.68-.68-1.12l-.78.44c-.44.24-.93.54-1.42.83-.49.34-.93.63-1.32.98-.44.34-.73.68-1.03,1.02s-.44.68-.49,1.03c-.05.34.05.63.24.98.15.34.39.68.73.98.29.29.63.54,1.03.73.39.2.73.29,1.07.34.39,0,.83-.1,1.22-.29.44-.24.78-.49,1.17-.83.34-.34.68-.73.93-1.17.24-.39.39-.78.44-1.12.05-.49,0-.98-.24-1.42Zm23.28,12.84c.1-.98.59-2.05.59-2.34.2-1.37-.59-1.27-.54-2.68-.15.2-.49.39-.78-.63-.05-.98.49-1.27.68-.63.05.2,0,.34-.05.34.1.29.2.73.29.29l-.15-.1c.1-.44-.05-1.61.15-1.61-.2-.63-.24-.24-.24.29.1-1.32-.29-1.95-.44-3.27-.05.2-.15.44-.2.24-.29-1.95-.44-.78-.83-2-.05-.78.59.1-.05-1.12-.15-.83.29-.29.54,0-.73-1.07-.59-2.24-.88-2.93.15.2.29.39.39.54-.24-.39-.39-.63-.54-.88l-.1.44c-.15-.34-.29-.63-.15-.68-.39-.24-.29.49-.93-.1-.1-.49-.83-1.27-.59-1.61.63,1.46.24-.34.93.83-.15-.24-.29-.49-.44-.88.05,0,.1.05.15.1-.49-1.56-.73-.39-1.66-1.76.29.05,0-.54-.2-.68.44.49-.05.44-.59.15-.63-.93-.93-.68-1.32-1.07l.39.49c-.24.05-.59-.29-1.12-.59.2.39.24.88.2,1.37-.1.44-.2.93-.34,1.46-.1.59-.2,1.07-.24,1.46l-2.15,14.3c-.1.54-.15,1.17-.24,1.81-.15.63-.24,1.27-.34,1.95-.15.63-.24,1.27-.34,1.9-.15.63-.24,1.17-.34,1.71-.05.29-.15.63-.24,1.07-.1.44-.24.93-.39,1.42-.15.49-.34,1.03-.54,1.56-.2.49-.39,1.03-.59,1.46-.44.83-.88,1.61-1.37,2.25-.49.63-.88,1.07-1.22,1.27-.34.2-.78.34-1.32.39-.59.1-1.12.1-1.66.1.2-.63.39-1.37.59-2.2.24-.83.44-1.61.59-2.39.2-.78.34-1.71.54-2.78.2-1.07.39-2.15.49-3.12l.05-.15c-1.71,0-3.47.05-5.32.15-1.85.1-3.71.24-5.66.39-1.9.2-3.86.44-5.76.68-1.95.29-3.86.59-5.66.93-.59-.49-1.07-1.17-1.46-2.05s-.63-1.81-.73-2.83c3.27-.34,6.54-.59,9.86-.78,3.27-.15,6.44-.24,9.52-.29.93-.05,1.85,0,2.83,0,.98.05,1.95.1,2.88.15l2.98-21.33c-.15-.73-.39-1.42-.83-2.15-.05-.34,0-.68.15-1.03.05,0,.1-.05.15-.05-1.32-.68-2.59-.24-4.39-.68l.59.2c-.29.24-1.17-.15-1.81-.1.1-.24-.29-.34-.54-.54,0,.2-1.37-.2-1.61.29l-.78-.39c-1.51-.29-1.81.49-3.22.24.44-.2-.15-.44.83-.54-.49-.05-.93-.15-.93,0-.29-.15-1.37.15-1.81-.1-.2.05-.29.29-.83.2-.05-.05,0-.1,0-.1,0,.1-.88.05-.44.34-1.37-.93-4.1-.59-5.27-1.46-1.07-.1-2.34-.24-3.27-.39.05-.05,0-.1.1-.1-1.17-.39-.88.54-2.29.05-.54-.44.29-.24.44-.24l-.05-.05c-.05-.83-1.81-.24-2.73-.88h.24c-.73-.44-1.9-.05-3.17-.34,0,0,.1-.05.05-.1-.93.24-2.59.1-3.81.05.39-.24.59-.1.39-.44-.54-.05.1.54-1.03.44-.34-.2-1.07-.44-1.17-.78l1.07.1c-.49-.49-1.37-.15-1.9-.29l.1-.2c-1.61-.1-1.66.34-3.37.15l.15.2c-.93.39-.73-.34-1.71-.1l-.24-.49c-.63.1-2.2.34-3.27.44.63-.39,1.9-.49,2.73-.63-.59-.05-2.1-.1-2.39.15.24-.05.54-.15.78-.05-.78.34-1.76.54-2.98.49.2-.93-3.17-.1-4.15-.73-2.15.59-4.59.54-6.98,2,1.17.1-.68.39-.15.98-.44.29-.63.44-.68.44h-.05c-.59.29-1.17.54-1.76.88-.44.15.34-.54.2-.59-1.07.88-.63.15-1.46.68.34.05-.1.59-.63,1.17.34-.24.63-.44.98-.63-.93,1.71-1.61.88-2.34,2.73l.15-.63c-.49.88-1.85,3.17-1.66,4.3-.1.1-.34.2-.34,0-.98,2.1-1.07,4.83-1.85,6.39l-.15-.24c-.05.44.2.78-.15,1.27-.05-.05-.15-.2-.2-.05,0,.24.1,1.17-.15,1.71l-.1-.54c-.73,2.1-.2,3.37-.39,5.17-.54-.1-1.03,1.56-1.22,2.39l-.05-.05c-.44,2.49-.15,4.34-.2,6.69-.73,1.37-.68,4.83-1.07,7.13.1-.34.39.1.44.49-.15.54.29,1.56-.2,1.42v-.2c-.49.44-.39,1.46-.49,2.29l.59.2c-1.12,2.1-.39,5.91-1.37,7.03.1.59,0,1.27.1,1.81l-.34-.05c-.24,1.51-.39,2.29-.39,4.25l-.24-.39c-.1,1.07.98,1.42.98,2.39l-.54.34c.05,1.9-.15,4,.93,5.81-.1,0-.24-.05-.34-.34.1.93,1.07,3.66,1.56,2.98-.44.24,1.03,1.85,1.9,2.49l-.39.1c.93.39,1.03.29,2,1.12.2.2,0,.34-.24.05.63.73.78.29,1.56,1.12l-.49-.1c.78.63.78.49,1.37.63.59.24,1.46,1.12,1.42,1.46.24-.1.83,0,1.27.34,0,.15-.2.1-.34.05,1.37,1.02,2.34.83,3.22,1.61-.05.1,0,.2.05.24-1.12-.49-1.95-1.03-1.95-1.03-.2.29.63.78-.1.78.88.2,2.34.39,3.17.93.05,0,.05.05.1.15.15.1.34.15.49.2.29.15.49.24.78.39,0,.1.05.15.2.2-.05-.05-.1-.1-.1-.15.2.05.34.1.59.2t-.1.05s-.15,0-.2-.05c.34.24.88.34,1.17.49.05-.34.68-.05.2-.54-.05,0-.15-.05-.29-.05l-.05-.05h-.1l-.2-.05h-.05c-.29-.1-.68-.29-1.17-.44.44,0,.93,0,1.37.39.34-.15.73-.24.88-.29.49.68,1.76,1.37,1.85,1.66,1.56.29,3.56.93,4.69.59.49,0,.44.29.59.44-.2,0-.44-.05-.59-.05.29.05.73.15,1.12.2.15-.54.29-1.07.49-1.71.2-.83.39-1.61.59-2.34.15-.78.34-1.71.54-2.78.2-1.07.34-2.15.49-3.12l3.47-25.14c-.1-.73-.39-1.42-.83-2.15,0-.39.05-.73.15-1.03.24-.1.54-.2.83-.24.34,0,.63-.05.83-.05.68.24,1.42.68,2.2,1.32.83.59,1.51,1.27,2.15,1.95.24.49.34,1.07.29,1.71-.1.44-.24.93-.34,1.46-.15.54-.24,1.03-.29,1.46l-1.66,11.13c.73-.2,1.46-.39,2.2-.54.73-.2,1.42-.29,2.05-.34.49.29.98.68,1.46,1.17s.88.93,1.12,1.37c.05.29.05.63,0,1.03s-.15.73-.24.98c-.39.39-.78.78-1.22,1.12-.44.34-.78.49-1.07.39-.73-.29-1.51-.54-2.34-.78-.88-.24-1.71-.44-2.49-.59-.1.59-.2,1.12-.29,1.71s-.2,1.17-.29,1.76c-.1.63-.2,1.17-.29,1.76-.15.54-.24,1.03-.29,1.51-.05.29-.15.63-.24,1.07-.15.44-.24.88-.39,1.42-.2.49-.34,1.03-.54,1.51-.2.54-.39,1.03-.63,1.51-.39.83-.83,1.56-1.32,2.25-.49.63-.93,1.07-1.27,1.27-.2.15-.49.24-.83.29,0,0,0,.05-.05.05-.15.05-.29.05.54.2l-.24.1c2.68,1.37,4.83.15,7.81,1.37,3.71,1.12,7.86.93,11.62,1.81,1.07.2,1.17-.1,1.85-.29l.24.39,1.12-.39c1.56-.29,2.78.93,4.78.24l-.24-.24c.73.05,2.29-.29,2.2,0,.05-.05.2-.29.49-.15l.05.2,1.71-.59c1.42-.05-.1.83,1.95.54.29-.1.73-.29,1.07-.44.05-.2.1-.39.15-.59-.2,0-.29-.05-.34-.15l.44-.15c.1-.44.15-.83.24-1.22.15-.78.34-1.71.54-2.78.2-1.07.34-2.15.49-3.12l3.51-25.14c-.15-.73-.39-1.42-.83-2.15-.05-.39,0-.73.15-1.02.24-.1.49-.2.83-.24.29,0,.59-.05.83-.05.29.15.63.29,1.03.54.44.2.83.49,1.22.78.39.29.78.63,1.17.98.39.34.73.68,1.07,1.03.2.49.29,1.07.29,1.71-.15.39-.24.88-.39,1.46-.1.54-.2,1.03-.24,1.46l-2.1,14.25c-.1.59-.2,1.17-.29,1.81-.1.63-.24,1.32-.34,1.95-.1.63-.24,1.32-.34,1.9-.1.63-.24,1.22-.34,1.71-.05.29-.1.63-.2,1.07-.15.44-.24.93-.44,1.42-.15.54-.29,1.03-.49,1.56-.05.15-.15.29-.2.44.98-.39,1.85-.78,2.68-1.27l-.05.1.2-.2c.29-.2.54-.39.83-.54,0,.05,0,.15-.15.34.78-.24.44-.54,1.12-.68h.05v.05l.05-.05.44-.49c0,.1.2.15.05.29,1.12-.63,1.22-1.66,1.81-1.76.78-1.07.24-.68.2-1.07.2-.2.39-.44.54-.63.29-.1.54-.15.88-.24l-.24-.34c.1-.15.34-.49.44-.34.05-.78-.24.05-.24-.44.78-.68.78-2.39,1.42-2.44-.2-.39-.49.83-.39-.2.73-.1.2-1.12.68-1.85.29.34-.1,1.07.39.34-.39-.63.54-1.56.63-2.24h.24c.05-.2-.24-.34-.39-.49.1-.49.44-1.42.54-2.2.15,0,.83-2.1,1.27-3.12l.1.05c-.39-.29,0-1.37.15-2.2.24.1.29.29.29.73l.2-.73c-.1-.24-.1-.49,0-.98l.24.29c.29-1.03.2-2.15.73-3.37-.2-.1-.63.29-.83.1.05-.2.1-.44.2-.63.1.05.15.15.15.34,0-.15-.05-.49.1-.68l.15.63c.24-.59-.15-.39,0-.83.2.05.24-.34.39-.2,0,.1-.15.34-.15.54.2-.54.49-1.07.73-1.27-.15.05-.34-.05-.24-.44.24-1.03.34-.29.63-.83-.1-.29.2-.88-.15-1.03.1-.29.24-.29.39-.39-.05-.54.49-2.29.05-1.95h-.05v.05l-.05.1v-.1c.05-1.81,1.03-3.51,1.17-5.27l.15.05c.05-1.07.34-2.29.2-3.07.05-.29.34-.68.44-.54.05-.78-.1-.93.29-2,.05.78.2-.29,0,.83.24-1.02.54-1.22.29-2.39.29.44.49-.73.44-1.22l-.29.68c0-.54.1-1.03.15-1.51l.39.29c.73-2.1-.63-3.9.29-5.52-.24-.54-.24,1.17-.54.68Zm-35-13.86c.44-.63,1.03-1.32,1.71-1.95.73-.63,1.51-1.27,2.39-1.9s1.81-1.27,2.73-1.81c.2-.73.29-1.46.24-2.25.1-.39.29-.68.54-.88.29,0,.54.05.83.15.29.1.54.2.68.29.59.39,1.17.93,1.71,1.51s1.02,1.17,1.37,1.81c.05.15,0,.29,0,.49-.05.2-.05.44-.1.63-.05.24-.05.39-.1.49.54,0,.98.1,1.42.29.63.29,1.22.73,1.71,1.22s.93,1.02,1.27,1.61c.34.59.59,1.22.78,1.81.15.63.2,1.22.1,1.76-.1.93-.54,1.81-1.17,2.64-.68.88-1.51,1.66-2.44,2.34s-1.95,1.22-3.07,1.56c-1.07.39-2.15.59-3.17.54-1.03-.1-2.1-.39-3.12-.88-1.07-.54-2-1.22-2.78-2-.78-.78-1.42-1.66-1.85-2.64-.44-.98-.59-1.9-.44-2.88.05-.63.34-1.32.78-1.95Zm-29.92-12.98c.2-.1.44-.2.68-.29.24-.1.49-.15.73-.2.24,0,.49.05.88.1.34.1.73.2,1.17.29.44.15.83.34,1.32.54.44.2.88.44,1.27.63.34.49.59.93.68,1.37-.05.44-.05.93-.1,1.46s-.05,1.07-.1,1.66c-.05.54-.1,1.12-.1,1.66s-.05,1.03-.05,1.46c.29-.2.68-.34,1.17-.54.49-.15,1.02-.29,1.61-.39.54-.1,1.12-.2,1.76-.29.59-.05,1.17-.1,1.66-.1l.93-4.3c-.54.2-1.22.34-1.9.44-.73.15-1.46.24-2.2.24-.54-.24-1.03-.63-1.51-1.17-.49-.54-.83-1.12-1.12-1.76.78-.39,1.66-.78,2.64-1.17,1.02-.39,2-.68,2.93-.98.98-.24,1.85-.49,2.68-.59.83-.15,1.51-.2,2-.15.78.44,1.51.98,2.15,1.71.63.68,1.12,1.46,1.51,2.25-.05.73-.15,1.42-.29,2.1-.49.73-1.07,1.46-1.71,2.24-.59.73-1.22,1.37-1.85,1.9.39.44.73.93.93,1.46.05.44-.05.83-.2,1.17-.15.2-.39.44-.68.68s-.59.39-.88.49c-.78-.1-1.61-.2-2.49-.24-.88-.05-1.76-.1-2.68-.1-.88,0-1.71.05-2.49.1-.83.1-1.56.2-2.15.34-.24.24-.59.49-.98.78-.39.24-.88.44-1.42.49-.59-.1-1.03-.44-1.37-.98-.34-.49-.54-1.07-.63-1.66l-.78-7.57c-.1-.29-.24-.68-.44-1.07-.2-.34-.34-.68-.54-.98-.05-.15-.1-.34-.1-.54s0-.39.05-.54Zm5.86,53.79c-.39.34-.88.63-1.37.83-.54.24-.98.34-1.22.29-.78-.1-1.61-.2-2.39-.29-.83-.05-1.71-.1-2.54-.05.24.24.49.54.68.83.24.29.49.59.68.88l-.15.88c0,.1-.05.2-.1.34.1.05.24.05.34.1s.24.05.34.1c.49.2.93.49,1.32.83.44.39.83.78,1.12,1.27.34.44.59.93.73,1.46.15.54.2,1.03.15,1.51-.1.68-.44,1.42-1.03,2.15-.54.68-1.22,1.32-2.05,1.85-.78.59-1.61,1.03-2.49,1.37-.88.34-1.71.49-2.49.44-.78-.05-1.61-.24-2.49-.68-.83-.39-1.66-.88-2.39-1.51-.68-.63-1.27-1.32-1.71-2.1-.44-.73-.59-1.51-.49-2.29.1-.59.29-1.17.68-1.76.39-.59.83-1.12,1.42-1.71.59-.54,1.27-1.12,2-1.66.78-.54,1.56-1.07,2.49-1.66l.05-.44c-1.07.05-2.15.2-3.22.39-1.07.24-2.1.44-3.07.73-.63-.49-1.12-1.12-1.51-1.85-.39-.73-.63-1.56-.73-2.49,2.88-.63,5.71-1.12,8.44-1.37,2.73-.29,5.47-.34,8.15-.1.59.29,1.17.63,1.66,1.07.54.39.98.78,1.32,1.22.05.2.1.44.05.68-.05.24-.1.49-.2.73Zm-14.15-12.64c1.46.78,2.88,1.37,4.3,1.76,1.42.39,2.64.63,3.71.68.44.24.93.49,1.46.83.59.34,1.12.73,1.61,1.17.05.2.05.44,0,.73,0,.34-.05.59-.15.78-.29.34-.63.68-1.07.98-.39.34-.73.49-1.02.49-.98.1-2,.1-3.17.05-1.17-.1-2.2-.2-3.07-.39-.39-.29-.78-.73-1.12-1.27s-.63-1.12-.88-1.76-.39-1.32-.54-2c-.1-.73-.1-1.42-.05-2.05Zm24.99-22.5c-1.76-.24-3.42-.34-5.08-.34.34.39.49.78.44,1.12l-1.03,5.08c-.1.39-.29.83-.59,1.27-.29.44-.63.83-1.02,1.17-.34.34-.73.59-1.07.83-.39.24-.73.39-1.07.54,1.17-.15,2.29-.2,3.42-.24,1.12,0,2.2,0,3.12.1.59.24,1.22.59,1.81,1.02.54.49,1.03.93,1.42,1.37.1.54,0,1.02-.2,1.56-.2.15-.34.29-.54.49-.24.15-.44.29-.68.39-.2.15-.44.24-.63.34-.24.1-.39.15-.54.1-2.2-.34-4.44-.59-6.69-.73-2.25-.15-4.44-.15-6.54-.1-.88-.29-1.66-.78-2.29-1.46-.63-.63-1.12-1.42-1.46-2.34l.29-4.15c-.1-.73-.29-1.42-.63-2.1-.05-.39,0-.73.15-1.03.24-.1.49-.15.78-.2.24-.05.54-.05.83-.05.54.15,1.22.34,2.05.63.83.29,1.61.68,2.34,1.07.15.24.24.54.24.83.05.29.1.59.05.88-.1.39-.2.93-.29,1.76-.1.78-.24,1.56-.34,2.39.29-.05.63-.15.93-.15.34-.05.68-.1,1.02-.2.24-.93.54-2.29.83-4,.24-1.71.54-3.71.88-6-2.78.2-5.47.59-8.1,1.07-2.59.49-4.98,1.07-7.08,1.71-.68-.49-1.22-1.17-1.56-2-.34-.83-.59-1.76-.78-2.73,3.86-.68,7.71-1.22,11.52-1.56,3.86-.39,7.52-.68,10.98-.88,1.46-.1,3.03-.15,4.64-.2,1.61,0,3.22,0,4.78.1.68.29,1.32.68,1.95,1.12.63.49,1.17.98,1.56,1.46.1.63,0,1.22-.24,1.76-.2.15-.39.34-.63.49-.24.2-.49.34-.73.44-.24.15-.49.24-.73.29s-.39.05-.54.05c-1.56-.44-3.22-.78-4.93-.98Zm22.45,37.83c-.05.39-.1.78-.15,1.12-.2.29-.34.63-.49,1.03-.2.44-.34.83-.54,1.32-.44,1.07-.93,2.39-1.46,3.95-.54,1.56-1.07,3.07-1.61,4.59-.15.49-.39.98-.78,1.46-.39.54-.88,1.02-1.42,1.46-.49.44-1.07.78-1.61,1.07-.54.24-.98.39-1.32.39-.39,0-.78,0-1.17-.05-.44-.05-.88-.1-1.27-.2.54-1.17,1.07-2.44,1.61-3.81.54-1.37,1.02-2.73,1.56-4.15l2.44-7.76-9.08,1.56c-.88-.63-1.46-1.42-1.85-2.34-.39-.88-.63-1.85-.78-2.83,2.15-.63,4.44-1.12,6.88-1.42,2.49-.34,4.83-.49,7.03-.49.78.49,1.56,1.03,2.25,1.71s1.27,1.42,1.81,2.24c0,.34,0,.73-.05,1.12Zm-3.12-38.7c.29.29.63.54,1.03.73.39.2.73.29,1.07.34.39,0,.83-.1,1.22-.29.44-.24.78-.49,1.17-.83.34-.34.68-.73.93-1.17.24-.39.39-.78.44-1.12.05-.49,0-.98-.24-1.42-.24-.49-.54-.93-.88-1.37-.29-.29-.54-.68-.68-1.12l-.78.44c-.44.24-.93.54-1.42.83-.49.34-.93.63-1.32.98-.44.34-.73.68-1.03,1.02s-.44.68-.49,1.03c-.05.34.05.63.24.98.15.34.39.68.73.98Zm-38.46,41.39l-.59.39c-.83.54-1.51,1.02-2.1,1.56-.59.49-.93,1.02-.98,1.51,0,.2,0,.39.15.63.1.2.29.39.49.59.2.15.44.29.68.44.29.1.54.2.78.2.24.05.54,0,.83-.2.29-.15.59-.34.83-.59s.44-.54.59-.83c.2-.29.29-.59.34-.88.05-.63-.1-1.22-.49-1.81-.29-.34-.44-.68-.54-1.03Zm44.07-45.15c-.24-.49-.54-.93-.88-1.37-.29-.29-.54-.68-.68-1.12l-.78.44c-.44.24-.93.54-1.42.83-.49.34-.93.63-1.32.98-.44.34-.73.68-1.03,1.02s-.44.68-.49,1.03c-.05.34.05.63.24.98.15.34.39.68.73.98.29.29.63.54,1.03.73.39.2.73.29,1.07.34.39,0,.83-.1,1.22-.29.44-.24.78-.49,1.17-.83.34-.34.68-.73.93-1.17.24-.39.39-.78.44-1.12.05-.49,0-.98-.24-1.42Zm-43.54,46.17c-.29-.34-.44-.68-.54-1.03l-.59.39c-.83.54-1.51,1.02-2.1,1.56-.59.49-.93,1.02-.98,1.51,0,.2,0,.39.15.63.1.2.29.39.49.59.2.15.44.29.68.44.29.1.54.2.78.2.24.05.54,0,.83-.2.29-.15.59-.34.83-.59s.44-.54.59-.83c.2-.29.29-.59.34-.88.05-.63-.1-1.22-.49-1.81Zm43.54-46.17c-.24-.49-.54-.93-.88-1.37-.29-.29-.54-.68-.68-1.12l-.78.44c-.44.24-.93.54-1.42.83-.49.34-.93.63-1.32.98-.44.34-.73.68-1.03,1.02s-.44.68-.49,1.03c-.05.34.05.63.24.98.15.34.39.68.73.98.29.29.63.54,1.03.73.39.2.73.29,1.07.34.39,0,.83-.1,1.22-.29.44-.24.78-.49,1.17-.83.34-.34.68-.73.93-1.17.24-.39.39-.78.44-1.12.05-.49,0-.98-.24-1.42Zm-43.54,46.17c-.29-.34-.44-.68-.54-1.03l-.59.39c-.83.54-1.51,1.02-2.1,1.56-.59.49-.93,1.02-.98,1.51,0,.2,0,.39.15.63.1.2.29.39.49.59.2.15.44.29.68.44.29.1.54.2.78.2.24.05.54,0,.83-.2.29-.15.59-.34.83-.59s.44-.54.59-.83c.2-.29.29-.59.34-.88.05-.63-.1-1.22-.49-1.81Zm43.54-46.17c-.24-.49-.54-.93-.88-1.37-.29-.29-.54-.68-.68-1.12l-.78.44c-.44.24-.93.54-1.42.83-.49.34-.93.63-1.32.98-.44.34-.73.68-1.03,1.02s-.44.68-.49,1.03c-.05.34.05.63.24.98.15.34.39.68.73.98.29.29.63.54,1.03.73.39.2.73.29,1.07.34.39,0,.83-.1,1.22-.29.44-.24.78-.49,1.17-.83.34-.34.68-.73.93-1.17.24-.39.39-.78.44-1.12.05-.49,0-.98-.24-1.42Zm0,0c-.24-.49-.54-.93-.88-1.37-.29-.29-.54-.68-.68-1.12l-.78.44c-.44.24-.93.54-1.42.83-.49.34-.93.63-1.32.98-.44.34-.73.68-1.03,1.02s-.44.68-.49,1.03c-.05.34.05.63.24.98.15.34.39.68.73.98.29.29.63.54,1.03.73.39.2.73.29,1.07.34.39,0,.83-.1,1.22-.29.44-.24.78-.49,1.17-.83.34-.34.68-.73.93-1.17.24-.39.39-.78.44-1.12.05-.49,0-.98-.24-1.42Zm0,0c-.24-.49-.54-.93-.88-1.37-.29-.29-.54-.68-.68-1.12l-.78.44c-.44.24-.93.54-1.42.83-.49.34-.93.63-1.32.98-.44.34-.73.68-1.03,1.02s-.44.68-.49,1.03c-.05.34.05.63.24.98.15.34.39.68.73.98.29.29.63.54,1.03.73.39.2.73.29,1.07.34.39,0,.83-.1,1.22-.29.44-.24.78-.49,1.17-.83.34-.34.68-.73.93-1.17.24-.39.39-.78.44-1.12.05-.49,0-.98-.24-1.42Zm0,0c-.24-.49-.54-.93-.88-1.37-.29-.29-.54-.68-.68-1.12l-.78.44c-.44.24-.93.54-1.42.83-.49.34-.93.63-1.32.98-.44.34-.73.68-1.03,1.02s-.44.68-.49,1.03c-.05.34.05.63.24.98.15.34.39.68.73.98.29.29.63.54,1.03.73.39.2.73.29,1.07.34.39,0,.83-.1,1.22-.29.44-.24.78-.49,1.17-.83.34-.34.68-.73.93-1.17.24-.39.39-.78.44-1.12.05-.49,0-.98-.24-1.42Zm0,0c-.24-.49-.54-.93-.88-1.37-.29-.29-.54-.68-.68-1.12l-.78.44c-.44.24-.93.54-1.42.83-.49.34-.93.63-1.32.98-.44.34-.73.68-1.03,1.02s-.44.68-.49,1.03c-.05.34.05.63.24.98.15.34.39.68.73.98.29.29.63.54,1.03.73.39.2.73.29,1.07.34.39,0,.83-.1,1.22-.29.44-.24.78-.49,1.17-.83.34-.34.68-.73.93-1.17.24-.39.39-.78.44-1.12.05-.49,0-.98-.24-1.42Zm0,0c-.24-.49-.54-.93-.88-1.37-.29-.29-.54-.68-.68-1.12l-.78.44c-.44.24-.93.54-1.42.83-.49.34-.93.63-1.32.98-.44.34-.73.68-1.03,1.02s-.44.68-.49,1.03c-.05.34.05.63.24.98.15.34.39.68.73.98.29.29.63.54,1.03.73.39.2.73.29,1.07.34.39,0,.83-.1,1.22-.29.44-.24.78-.49,1.17-.83.34-.34.68-.73.93-1.17.24-.39.39-.78.44-1.12.05-.49,0-.98-.24-1.42Zm0,0c-.24-.49-.54-.93-.88-1.37-.29-.29-.54-.68-.68-1.12l-.78.44c-.44.24-.93.54-1.42.83-.49.34-.93.63-1.32.98-.44.34-.73.68-1.03,1.02s-.44.68-.49,1.03c-.05.34.05.63.24.98.15.34.39.68.73.98.29.29.63.54,1.03.73.39.2.73.29,1.07.34.39,0,.83-.1,1.22-.29.44-.24.78-.49,1.17-.83.34-.34.68-.73.93-1.17.24-.39.39-.78.44-1.12.05-.49,0-.98-.24-1.42Zm0,0c-.24-.49-.54-.93-.88-1.37-.29-.29-.54-.68-.68-1.12l-.78.44c-.44.24-.93.54-1.42.83-.49.34-.93.63-1.32.98-.44.34-.73.68-1.03,1.02s-.44.68-.49,1.03c-.05.34.05.63.24.98.15.34.39.68.73.98.29.29.63.54,1.03.73.39.2.73.29,1.07.34.39,0,.83-.1,1.22-.29.44-.24.78-.49,1.17-.83.34-.34.68-.73.93-1.17.24-.39.39-.78.44-1.12.05-.49,0-.98-.24-1.42Z"/>
  <path class="cls-1" d="m23.64,86.7l.14.02c-.06-.05-.12-.1-.17-.14l-.15.06.18.06Z"/>
  <path class="cls-1" d="m90.51,57.39s-.04.06-.07.08c.02-.02.05-.04.05-.04l.02-.04Z"/>
  <path class="cls-1" d="m83.52,82.4c.23-.16.53-.37.28.21,1.09-1.45-.38.22.35-1.44-.2.41-.38.84-.63,1.22Z"/>
  <path class="cls-1" d="m85.73,77.32c0-.47,0-.58-.25-.1-.12.7.19.04.25.1Z"/>
  <path class="cls-1" d="m92.54,48.35l.3.12c.04-.56-.12-.02-.3-.12Z"/>
  <polygon class="cls-1" points="94.07 39.55 93.99 38.61 94.04 39.3 94.07 39.55"/>
  <path class="cls-1" d="m38.18,7.16c.49.07.96.26,1.21.23-.22-.21-.82-.39-1.21-.23Z"/>
  <polygon class="cls-1" points="7.53 52.81 7.54 53.62 7.61 53.25 7.53 52.81"/>
</svg>